<?xml version="1.0" encoding="UTF-8" standalone="no"?>
<!-- Created with Inkscape (http://www.inkscape.org/) -->

<svg
   width="116.33038"
   height="156.4133"
   viewBox="0 0 109.05974 146.63747"
   id="svg6931"
   version="1.1"
   inkscape:version="1.4 (86a8ad7, 2024-10-11)"
   sodipodi:docname="slajd4.svg"
   xml:space="preserve"
   inkscape:export-filename="portfolio\images\slide4.png"
   inkscape:export-xdpi="96"
   inkscape:export-ydpi="96"
   xmlns:inkscape="http://www.inkscape.org/namespaces/inkscape"
   xmlns:sodipodi="http://sodipodi.sourceforge.net/DTD/sodipodi-0.dtd"
   xmlns="http://www.w3.org/2000/svg"
   xmlns:svg="http://www.w3.org/2000/svg"
   xmlns:rdf="http://www.w3.org/1999/02/22-rdf-syntax-ns#"
   xmlns:cc="http://creativecommons.org/ns#"
   xmlns:dc="http://purl.org/dc/elements/1.1/"><defs
     id="defs6933" /><sodipodi:namedview
     id="base"
     pagecolor="#ffffff"
     bordercolor="#666666"
     borderopacity="1.0"
     inkscape:pageopacity="0.0"
     inkscape:pageshadow="2"
     inkscape:zoom="1.0296381"
     inkscape:cx="536.11069"
     inkscape:cy="208.32562"
     inkscape:document-units="px"
     inkscape:current-layer="layer1"
     showgrid="false"
     showguides="true"
     inkscape:guide-bbox="true"
     inkscape:window-width="1920"
     inkscape:window-height="1111"
     inkscape:window-x="-9"
     inkscape:window-y="-9"
     inkscape:window-maximized="1"
     inkscape:showpageshadow="2"
     inkscape:pagecheckerboard="0"
     inkscape:deskcolor="#d1d1d1"><sodipodi:guide
       position="-213.03656,683.04897"
       orientation="1,0"
       id="guide6990"
       inkscape:locked="false" /><sodipodi:guide
       position="-213.03656,683.04897"
       orientation="0,1"
       id="guide6992"
       inkscape:locked="false" /><sodipodi:guide
       position="194.80381,256.61249"
       orientation="0,-1"
       id="guide4"
       inkscape:locked="false" /><sodipodi:guide
       position="3.1217943,420.66468"
       orientation="1,0"
       id="guide5"
       inkscape:locked="false" /><sodipodi:guide
       position="393.39328,315.3259"
       orientation="1,0"
       id="guide6"
       inkscape:locked="false" /><sodipodi:guide
       position="238.57787,-122.70267"
       orientation="0,-1"
       id="guide11"
       inkscape:locked="false" /><sodipodi:guide
       position="77.914195,-385.15889"
       orientation="0,-1"
       id="guide12"
       inkscape:locked="false" /><sodipodi:guide
       position="156.6593,-70.31289"
       orientation="0,-1"
       id="guide109"
       inkscape:locked="false" /><inkscape:page
       x="0"
       y="0"
       width="109.05974"
       height="146.63747"
       id="page2"
       margin="0"
       bleed="0" /></sodipodi:namedview><metadata
     id="metadata6936"><rdf:RDF><cc:Work
         rdf:about=""><dc:format>image/svg+xml</dc:format><dc:type
           rdf:resource="http://purl.org/dc/dcmitype/StillImage" /></cc:Work></rdf:RDF></metadata><g
     inkscape:label="Layer 1"
     inkscape:groupmode="layer"
     id="layer1"
     transform="translate(-266.26913,206.4724)"><path
       style="fill:#ffffff;fill-rule:evenodd;stroke:#000000;stroke-width:0.373177px;stroke-linecap:butt;stroke-linejoin:miter;stroke-opacity:1"
       d="m 321.77172,-183.68741 a 26.634946,26.634946 0 0 1 16.77842,24.72082 26.634946,26.634946 0 0 1 -26.63481,26.63481 26.634946,26.634946 0 0 1 -26.63555,-26.63481 26.634946,26.634946 0 0 1 0.0897,-1.78353 c -0.29249,0.91204 -0.5522,1.833 -0.78206,2.7551 -0.99235,3.98078 -1.36519,8.16995 -1.06633,12.26165 0.25275,3.46055 1.06164,6.92718 2.39868,10.129 1.61502,3.86747 4.57383,7.02979 6.66399,10.66253 1.80375,3.13494 4.24854,6.07197 5.06487,9.59546 0.66209,2.85776 0.014,5.87665 -0.26677,8.79664 -0.3704,3.85316 -0.99692,7.68997 -1.86589,11.462093 -0.62473,2.711892 -1.3841,5.405244 -2.39941,7.996342 -1.76869,4.513768 -3.8231,8.953146 -6.39722,13.061214 -1.37789,2.198992 -5.88857,3.776407 -4.7981,6.131189 7.58524,16.379853 54.11073,2.131926 54.11073,2.131926 0,0 -3.83449,-1.534656 -4.79737,-3.198251 -0.66912,-1.156056 -0.43673,-2.673664 -0.26677,-3.998538 0.25027,-1.95083 1.13073,-3.773408 1.86589,-5.59766 1.54495,-3.833685 2.81867,-7.913146 5.3309,-11.195327 0.9958,-1.300982 2.1729,-2.6949 3.73177,-3.19897 3.05406,-0.987548 6.39154,0.619766 9.5962,0.800287 3.01749,0.169983 6.25377,1.381434 9.06268,0.266031 1.75177,-0.695615 3.32583,-2.237108 3.99854,-3.997804 0.57168,-1.496309 -0.0787,-3.207377 -0.26677,-4.798102 -0.11663,-0.98652 -0.84789,-1.99012 -0.5328,-2.93221 0.4986,-1.49078 2.98976,-1.70059 3.46501,-3.19898 0.38462,-1.21263 -1.2542,-2.54362 -0.79956,-3.73177 0.43189,-1.12871 2.48911,-1.00757 2.93222,-2.13192 1.02864,-2.61014 -3.12386,-5.90835 -1.59986,-8.26385 0.84293,-1.30282 3.24338,-0.20122 4.53207,-1.06559 1.26953,-0.85153 3.53907,-2.47735 2.66545,-3.73178 l -10.39576,-14.92709 c -1.41453,-2.03111 2.4995,-4.46121 2.66544,-6.93076 0.36124,-5.37569 -1.9789,-10.63195 -3.73177,-15.72665 -0.76317,-2.21814 -1.5657,-4.49061 -2.93221,-6.39723 -1.28153,-1.78804 -3.03096,-3.22113 -4.7981,-4.53134 -2.87718,-2.13321 -6.02358,-3.95319 -9.32944,-5.33162 -1.53204,-0.63881 -3.17053,-1.00641 -4.7981,-1.33236 -6.54909,-1.31156 -13.18919,-2.35379 -19.85786,-2.76895 z"
       id="path6950" /><path
       inkscape:connector-curvature="0"
       style="fill:#ffffff;fill-opacity:1;stroke:#000000;stroke-width:0.21928;stroke-miterlimit:4;stroke-dasharray:none;stroke-opacity:1"
       d="m 316.07839,-183.37467 -3.24846,6.87584 0.0545,0.0194 a 16.716699,16.716699 0 0 0 -4.14859,0.25706 l -4.19134,-6.23273 -6.27237,3.16607 2.39304,6.98303 a 16.716699,16.716699 0 0 0 -2.60604,2.94484 l -7.31204,-1.42786 -2.19294,6.675 6.54542,3.19988 a 16.716699,16.716699 0 0 0 0.2247,4.12373 l -6.19946,4.17859 3.17273,6.26898 6.97699,-2.39939 a 16.716699,16.716699 0 0 0 3.48474,3.00107 l -1.39742,7.35131 6.65807,2.24428 3.34175,-6.92314 -0.16239,-0.0529 a 16.716699,16.716699 0 0 0 4.35477,-0.44676 l 4.20013,6.00469 6.25426,-3.20132 -2.5796,-7.10013 a 16.716699,16.716699 0 0 0 2.60818,-3.30587 l 7.08606,1.24939 2.15539,-6.68745 -6.81787,-3.17945 a 16.716699,16.716699 0 0 0 -0.34136,-3.3689 l 6.10206,-4.27777 -3.20789,-6.25108 -6.99553,2.55007 a 16.716699,16.716699 0 0 0 -2.80691,-2.4546 l 1.689,-7.56406 z"
       id="path6963" /><circle
       style="fill:#ffffff;fill-opacity:1;stroke:#000000;stroke-width:0.225063;stroke-miterlimit:4;stroke-dasharray:none;stroke-opacity:1"
       id="path6988"
       cx="247.07498"
       cy="-248.73837"
       r="7.3954897"
       transform="rotate(18.025589)" /><path
       style="fill:#ffffff;fill-opacity:1;stroke:#000000;stroke-width:0.147909;stroke-miterlimit:4;stroke-dasharray:none;stroke-opacity:1"
       d="m 306.2047,-147.98585 c -5.97943,-2.892 -8.94191,-9.77692 -6.90683,-16.05174 1.01637,-3.13381 3.06108,-5.69575 5.89847,-7.39057 4.06334,-2.4271 9.29145,-2.46454 13.39858,-0.096 2.41912,1.39512 4.4596,3.67333 5.55494,6.20216 2.64011,6.09531 0.47105,13.09192 -5.15622,16.63211 -2.39549,1.50703 -5.32169,2.20916 -8.19798,1.96706 -1.41147,-0.1188 -3.29852,-0.63797 -4.59096,-1.26307 z m 4.36216,-0.47476 c 6.9786,0.78606 12.9682,-4.69112 12.80488,-11.70939 -0.0392,-1.68786 -0.4399,-3.21371 -1.27413,-4.85279 -1.03932,-2.04204 -2.38176,-3.49544 -4.28835,-4.64283 -3.618,-2.17729 -8.31677,-2.16039 -11.84605,0.0426 -1.76942,1.10449 -2.99143,2.36873 -4.04348,4.1832 -0.5305,0.91496 -1.22951,2.99408 -1.3552,4.0309 -0.38241,3.15432 0.4418,6.22034 2.31344,8.606 1.13913,1.45196 2.43668,2.47377 4.36021,3.4336 0.49601,0.24751 2.62955,0.82994 3.32868,0.90868 z"
       id="path7001"
       inkscape:connector-curvature="0" /><g
       id="g1"
       transform="matrix(0.37317746,0,0,0.37317746,160.10572,-246.83968)"
       style="fill:#ffffff;stroke:#000000"><path
         id="path7051"
         d="m 358.42778,156.28717 -12.26373,2.58718 0.0289,0.0908 a 27.551976,27.551976 0 0 0 -4.47153,-5.19011 l 4.00568,-11.71332 -10.40686,-5.0794 -6.78267,10.10018 a 27.551976,27.551976 0 0 0 -6.46293,-0.48668 l -5.41194,-11.02215 -10.94824,3.77275 2.32169,11.78153 a 27.551976,27.551976 0 0 0 -5.18972,4.40428 l -11.66343,-3.97471 -5.06833,10.41221 10.10252,6.76844 a 27.551976,27.551976 0 0 0 -0.46728,7.56534 l -11.04335,5.49104 3.68845,10.97717 12.41879,-2.51185 -0.0924,-0.26586 a 27.551976,27.551976 0 0 0 4.92603,5.27177 l -3.69754,11.49762 10.43508,5.0205 6.75051,-10.46178 a 27.551976,27.551976 0 0 0 6.93901,0.12973 l 5.42106,10.54763 10.92716,-3.83446 -2.62002,-12.11884 a 27.551976,27.551976 0 0 0 4.08254,-3.80525 l 11.69658,3.74802 5.00978,-10.44055 -10.31879,-6.6426 a 27.551976,27.551976 0 0 0 0.42532,-6.13093 l 11.61321,-5.32026 z"
         style="fill:#ffffff;fill-opacity:1;stroke:#000000;stroke-width:0.361411;stroke-miterlimit:4;stroke-dasharray:none;stroke-opacity:1"
         inkscape:connector-curvature="0" /><circle
         r="12.189032"
         cy="-248.56866"
         cx="270.70758"
         id="circle7053"
         style="fill:#ffffff;fill-opacity:1;stroke:#000000;stroke-width:0.370943;stroke-miterlimit:4;stroke-dasharray:none;stroke-opacity:1"
         transform="rotate(70.824819)" /><path
         inkscape:connector-curvature="0"
         id="path7055"
         d="m 302.13006,178.58992 c -2.16188,-10.73171 3.92456,-21.4817 14.19011,-25.06288 5.12691,-1.78855 10.52779,-1.65723 15.58021,0.37882 7.23543,2.91577 12.49439,9.74195 13.47765,17.49411 0.57915,4.56607 -0.37837,9.51504 -2.60673,13.47298 -5.37106,9.53993 -16.71771,13.66451 -26.97285,9.80481 -4.36555,-1.64305 -8.20327,-4.78491 -10.75166,-8.80216 -1.25057,-1.97138 -2.44945,-4.96605 -2.91673,-7.28568 z m 4.97015,5.25355 c 5.92225,9.94485 19.08134,12.35002 28.1322,5.14189 2.1767,-1.73352 3.78062,-3.77996 5.1011,-6.50849 1.6451,-3.39931 2.2154,-6.61 1.82177,-10.25634 -0.74697,-6.91939 -5.4515,-13.07112 -11.86055,-15.50906 -3.21322,-1.22227 -6.09064,-1.56672 -9.52105,-1.13973 -1.7298,0.21531 -5.15585,1.36949 -6.64224,2.23766 -4.52207,2.64127 -7.72584,6.77857 -8.99264,11.61299 -0.77101,2.94234 -0.81942,5.664 -0.1627,9.14569 0.16935,0.89781 1.53081,4.27911 2.12411,5.27539 z"
         style="fill:#ffffff;fill-opacity:1;stroke:#000000;stroke-width:0.24378;stroke-miterlimit:4;stroke-dasharray:none;stroke-opacity:1" /><path
         inkscape:connector-curvature="0"
         id="path7057"
         d="m 304.93156,177.18171 c -0.24194,-1.89499 -0.27161,-3.32736 -0.10086,-4.87005 0.39964,-3.61073 1.62165,-6.66317 3.77419,-9.42743 1.3766,-1.76781 2.82303,-3.09344 4.8535,-4.44815 1.08846,-0.72621 1.26399,-0.80447 3.7322,-1.66386 2.09583,-0.72974 2.7909,-0.92603 3.64281,-1.02874 3.92803,-0.47356 7.63327,0.18314 11.15376,1.97686 3.09928,1.57911 5.53762,3.87531 7.49811,7.06102 0.54131,0.87961 0.77509,1.42131 1.46924,3.40451 0.91554,2.61568 1.13064,3.76264 1.12901,6.01968 -0.002,3.00636 -0.52008,5.13831 -1.98198,8.15906 -1.47694,3.05183 -2.87773,4.83255 -5.23379,6.65337 -2.94213,2.27374 -6.77913,3.72144 -10.36355,3.91019 -6.6477,0.35004 -12.87105,-2.7278 -16.62005,-8.21966 -1.26892,-1.85883 -2.69215,-5.48696 -2.95259,-7.5268 z m 7.8955,2.86568 c 1.93342,3.47243 5.37833,5.81109 9.2893,6.30625 7.37493,0.93373 13.92038,-4.75669 13.98398,-12.15727 0.068,-7.91389 -7.03583,-13.83272 -14.81225,-12.34135 -1.30182,0.24966 -3.23692,1.03775 -4.41477,1.79794 -1.17739,0.75991 -2.8687,2.47548 -3.63841,3.6906 -2.45244,3.8716 -2.60907,8.75044 -0.40785,12.70383 z"
         style="fill:#ffffff;fill-opacity:1;stroke:#000000;stroke-width:0.24378;stroke-miterlimit:4;stroke-dasharray:none;stroke-opacity:1" /></g><g
       id="g3"
       transform="matrix(0.30207218,0,0,0.30207218,205.18134,-247.35812)"
       style="fill:#ffffff;stroke:#000000"><path
         id="path1"
         d="m 358.42778,156.28717 -12.26373,2.58718 0.0289,0.0908 a 27.551976,27.551976 0 0 0 -4.47153,-5.19011 l 4.00568,-11.71332 -10.40686,-5.0794 -6.78267,10.10018 a 27.551976,27.551976 0 0 0 -6.46293,-0.48668 l -5.41194,-11.02215 -10.94824,3.77275 2.32169,11.78153 a 27.551976,27.551976 0 0 0 -5.18972,4.40428 l -11.66343,-3.97471 -5.06833,10.41221 10.10252,6.76844 a 27.551976,27.551976 0 0 0 -0.46728,7.56534 l -11.04335,5.49104 3.68845,10.97717 12.41879,-2.51185 -0.0924,-0.26586 a 27.551976,27.551976 0 0 0 4.92603,5.27177 l -3.69754,11.49762 10.43508,5.0205 6.75051,-10.46178 a 27.551976,27.551976 0 0 0 6.93901,0.12973 l 5.42106,10.54763 10.92716,-3.83446 -2.62002,-12.11884 a 27.551976,27.551976 0 0 0 4.08254,-3.80525 l 11.69658,3.74802 5.00978,-10.44055 -10.31879,-6.6426 a 27.551976,27.551976 0 0 0 0.42532,-6.13093 l 11.61321,-5.32026 z"
         style="fill:#ffffff;fill-opacity:1;stroke:#000000;stroke-width:0.361411;stroke-miterlimit:4;stroke-dasharray:none;stroke-opacity:1"
         inkscape:connector-curvature="0" /><circle
         r="12.189032"
         cy="-248.56866"
         cx="270.70758"
         id="circle1"
         style="fill:#ffffff;fill-opacity:1;stroke:#000000;stroke-width:0.370943;stroke-miterlimit:4;stroke-dasharray:none;stroke-opacity:1"
         transform="rotate(70.824819)" /><path
         inkscape:connector-curvature="0"
         id="path2"
         d="m 302.13006,178.58992 c -2.16188,-10.73171 3.92456,-21.4817 14.19011,-25.06288 5.12691,-1.78855 10.52779,-1.65723 15.58021,0.37882 7.23543,2.91577 12.49439,9.74195 13.47765,17.49411 0.57915,4.56607 -0.37837,9.51504 -2.60673,13.47298 -5.37106,9.53993 -16.71771,13.66451 -26.97285,9.80481 -4.36555,-1.64305 -8.20327,-4.78491 -10.75166,-8.80216 -1.25057,-1.97138 -2.44945,-4.96605 -2.91673,-7.28568 z m 4.97015,5.25355 c 5.92225,9.94485 19.08134,12.35002 28.1322,5.14189 2.1767,-1.73352 3.78062,-3.77996 5.1011,-6.50849 1.6451,-3.39931 2.2154,-6.61 1.82177,-10.25634 -0.74697,-6.91939 -5.4515,-13.07112 -11.86055,-15.50906 -3.21322,-1.22227 -6.09064,-1.56672 -9.52105,-1.13973 -1.7298,0.21531 -5.15585,1.36949 -6.64224,2.23766 -4.52207,2.64127 -7.72584,6.77857 -8.99264,11.61299 -0.77101,2.94234 -0.81942,5.664 -0.1627,9.14569 0.16935,0.89781 1.53081,4.27911 2.12411,5.27539 z"
         style="fill:#ffffff;fill-opacity:1;stroke:#000000;stroke-width:0.24378;stroke-miterlimit:4;stroke-dasharray:none;stroke-opacity:1" /><path
         inkscape:connector-curvature="0"
         id="path3"
         d="m 304.93156,177.18171 c -0.24194,-1.89499 -0.27161,-3.32736 -0.10086,-4.87005 0.39964,-3.61073 1.62165,-6.66317 3.77419,-9.42743 1.3766,-1.76781 2.82303,-3.09344 4.8535,-4.44815 1.08846,-0.72621 1.26399,-0.80447 3.7322,-1.66386 2.09583,-0.72974 2.7909,-0.92603 3.64281,-1.02874 3.92803,-0.47356 7.63327,0.18314 11.15376,1.97686 3.09928,1.57911 5.53762,3.87531 7.49811,7.06102 0.54131,0.87961 0.77509,1.42131 1.46924,3.40451 0.91554,2.61568 1.13064,3.76264 1.12901,6.01968 -0.002,3.00636 -0.52008,5.13831 -1.98198,8.15906 -1.47694,3.05183 -2.87773,4.83255 -5.23379,6.65337 -2.94213,2.27374 -6.77913,3.72144 -10.36355,3.91019 -6.6477,0.35004 -12.87105,-2.7278 -16.62005,-8.21966 -1.26892,-1.85883 -2.69215,-5.48696 -2.95259,-7.5268 z m 7.8955,2.86568 c 1.93342,3.47243 5.37833,5.81109 9.2893,6.30625 7.37493,0.93373 13.92038,-4.75669 13.98398,-12.15727 0.068,-7.91389 -7.03583,-13.83272 -14.81225,-12.34135 -1.30182,0.24966 -3.23692,1.03775 -4.41477,1.79794 -1.17739,0.75991 -2.8687,2.47548 -3.63841,3.6906 -2.45244,3.8716 -2.60907,8.75044 -0.40785,12.70383 z"
         style="fill:#ffffff;fill-opacity:1;stroke:#000000;stroke-width:0.24378;stroke-miterlimit:4;stroke-dasharray:none;stroke-opacity:1" /></g></g></svg>
